<svg width="20" height="20" viewBox="0 0 20 20" fill="none" xmlns="http://www.w3.org/2000/svg">
<path d="M20 9.99792L17.9392 7.93842L17.9371 7.9405L9.99164 0L7.93085 2.0595L15.8763 10L7.93085 17.9405L9.99164 20L17.9371 12.0595L17.9392 12.0616L20 10.0021L19.9979 10L20 9.99792Z" fill="white"/>
<path d="M14.1195 9.99797L12.0608 7.93848L12.0483 7.94888L7.03999 2.94368L4.9792 5.00317L9.98755 10.0084L4.98961 15.0032L7.0504 17.0627L14.1195 9.99797Z" fill="white"/>
<path d="M4.13199 9.99563L6.1678 7.96109L4.10701 5.9016L0 10.006L2.06079 12.0655L2.0712 12.0551L4.11742 14.1001L6.17821 12.0406L4.13199 9.99563Z" fill="white"/>
</svg>
